<svg xmlns:dc="http://purl.org/dc/elements/1.1/" xmlns:cc="http://creativecommons.org/ns#" xmlns:rdf="http://www.w3.org/1999/02/22-rdf-syntax-ns#" xmlns:svg="http://www.w3.org/2000/svg" xmlns="http://www.w3.org/2000/svg" xmlns:xlink="http://www.w3.org/1999/xlink" xmlns:sodipodi="http://sodipodi.sourceforge.net/DTD/sodipodi-0.dtd" xmlns:inkscape="http://www.inkscape.org/namespaces/inkscape" id="svg2" inkscape:version="0.92.4 (5da689c313, 2019-01-14)" width="512" height="512" sodipodi:docname="icon.svg"><defs id="defs6"><linearGradient id="linearGradient2848"><stop style="stop-color:#000;stop-opacity:1" offset="0" id="stop2850" /><stop style="stop-color:#000003;stop-opacity:0" offset="1" id="stop2852" /></linearGradient><linearGradient id="linearGradient2821"><stop style="stop-color:#c10500;stop-opacity:1" offset="0" id="stop2823" /><stop id="stop2829" offset=".27817306" style="stop-color:#c20500;stop-opacity:1" /><stop style="stop-color:#870400;stop-opacity:1" offset="1" id="stop2825" /></linearGradient><radialGradient inkscape:collect="always" xlink:href="#linearGradient2821" id="radialGradient3612" gradientUnits="userSpaceOnUse" gradientTransform="matrix(0.19245862,-7.3372048e-4,5.9912046e-4,0.15576595,-371.37246,24.291281)" cx="2986.0168" cy="1053.2979" fx="2986.0168" fy="1053.2979" r="831.04797" /><radialGradient inkscape:collect="always" xlink:href="#linearGradient2848" id="radialGradient2854" cx="709.8783" cy="213.23445" fx="709.8783" fy="213.23445" r="77.24054" gradientTransform="matrix(-0.93896343,0.70940583,-0.70287059,-1.0232556,1174.3528,28.388725)" gradientUnits="userSpaceOnUse" /><linearGradient id="linearGradient2848-4"><stop style="stop-color:#000;stop-opacity:1" offset="0" id="stop2850-0" /><stop style="stop-color:#000003;stop-opacity:0" offset="1" id="stop2852-9" /></linearGradient><radialGradient r="77.24054" fy="213.23445" fx="709.8783" cy="213.23445" cx="709.8783" gradientTransform="matrix(-1.1037794,-0.02027432,0.02239852,-1.2931499,930.70669,612.57373)" gradientUnits="userSpaceOnUse" id="radialGradient3649" xlink:href="#linearGradient2848-4" inkscape:collect="always" /></defs><sodipodi:namedview pagecolor="#ffffff" bordercolor="#666666" borderopacity="1" objecttolerance="10" gridtolerance="10" guidetolerance="10" inkscape:pageopacity="0" inkscape:pageshadow="2" inkscape:window-width="1916" inkscape:window-height="1037" id="namedview4" showgrid="false" inkscape:zoom="1.0488889" inkscape:cx="149.31636" inkscape:cy="165.04069" inkscape:window-x="0" inkscape:window-y="20" inkscape:window-maximized="0" inkscape:current-layer="svg2" /><path style="opacity:.07000002;fill:#000003;fill-opacity:1;fill-rule:nonzero;stroke:none" d="m208.95503 133.52207c118.87659 35.33054 139.96338-.23046 199.92708-50.098275 28.32971 77.990295 51.90821 169.720515 32.14471 236.172965-26.17673 72.51674-66.51735 85.10831-127.63 60.7677C266.33543 360.51794 223.88501 260.70601 208.95503 133.52207z" id="rect2831-17" sodipodi:nodetypes="ccccc" inkscape:connector-curvature="0" /><path style="opacity:.07042254;fill:#000003;fill-opacity:1;fill-rule:nonzero;stroke:none" d="m146.99134 88.855445c1.6109.33025 5.14064.66711 3.89215 7.81467-2.40628 13.776045-8.79118 40.897465 15.68069 58.214685 28.11007 19.89175 92.51891 18.6826 133.7157 2.31036-5.09997 35.90715-10.43013 72.0736-17.29289 102.57984-9.08324 40.37623-34.88021 65.14128-62.1076 92.44102-19.54949 19.60149-43.16788 38.95943-72.98685 35.23635-24.39356-3.0457-30.7488 4.99048-49.325232-20.16227-12.724328-17.22892-23.070706-67.887-15.066641-124.3388.905751-6.38823 1.96804-12.50717 3.208241-18.68743.423544-2.11068 1.15417-4.23282 1.518633-6.36946 3.685866-21.60951 9.28607-23.28829 13.141379-38.5257 5.12308-20.24811 5.64034-33.05424 11.75888-48.04251 2.71997-6.66303 5.17548-13.26258 8.57654-18.98787 8.71128-14.664505 19.39449-24.690905 25.28706-23.482875z" id="rect2831-1-0" sodipodi:nodetypes="csscsssssssssss" inkscape:connector-curvature="0" /><path style="fill:#000;fill-opacity:1;fill-rule:nonzero;stroke:none" d="m212.66087 142.18899c114.40865 34.1761 134.717-.23572 192.44987-48.494805 27.2414 75.463205 54.35733 171.330825 35.31221 235.634005-7.78934 26.29956-22.17385 47.9397-49.19354 59.77269-26.96348 11.8083-51.16671 3.35903-78.12507-8.06927C267.81367 361.83182 226.98821 265.25468 212.66087 142.18899z" id="rect2831" sodipodi:nodetypes="ccsssc" inkscape:connector-curvature="0" /><path style="fill:#000;fill-opacity:1;fill-rule:nonzero;stroke:none" d="m147.90538 92.290215c4.53247.93417-16.94309 38.547865 18.7679 64.032165 27.00751 19.27325 89.67821 20.83818 129.29165 4.92627-4.92812 34.83299-10.83244 67.13111-17.45136 96.72667-8.76039 39.17091-20.20726 73.34781-46.39996 99.84858-18.80659 19.02778-59.75456 49.45665-88.41639 45.86789-23.44692-2.93576-36.40228-10.1043-54.241537-34.48785-12.219366-16.70203-10.427352-72.63314-2.692879-127.39616.875257-6.19717 1.900781-12.13319 3.097331-18.12881.408631-2.04764 1.112506-4.10664 1.464374-6.17938 3.558629-20.96355 8.943171-22.59619 12.660101-37.37904 4.93919-19.64407 5.4456-32.06612 11.33792-46.60903 2.61942-6.46507 4.98457-12.86832 8.25804-18.42431 8.38446-14.23083 18.66122-23.964305 24.32479-22.796995z" id="rect2831-1" sodipodi:nodetypes="cscsssssssssss" inkscape:connector-curvature="0" /><path style="fill:url(#radialGradient2854);fill-opacity:1;fill-rule:nonzero;stroke:none" d="m253.84604 218.96291c50.32625-7.91944 84.01119-15.23619 152.71571-33.19259 28.32975 77.99035 62.44477 87.5095 42.68129 153.96196-8.08315 27.17861-23.02003 49.54128-51.08764 61.7675-28.00924 12.20069-53.1581 3.46632-81.17049-8.34693-47.06143-19.84649-48.20896-47.00597-63.13887-174.18994z" id="rect2831-17-1" sodipodi:nodetypes="ccsssc" inkscape:connector-curvature="0" /><path style="fill:#fff;fill-opacity:1;fill-rule:nonzero;stroke:none" d="m403.34055 99.792635c-43.22754 43.679415-75.31747 59.870975-106.12151 60.034485-.66343 9.83851-2.32954 27.68443 3.65388 37.32747 4.78556 7.71317 18.90328 8.75084 18.48187 19.04786-.33825 8.26496-.9987 24.10756-1.72598 40.19836-.6397 14.15297-1.55083 28.46608.72146 38.43692.74537 3.27001 4.00634 7.31353 9.42733 7.43807 5.73974.13194 13.70667-3.71667 16.50318-2.17993 5.55357 3.05187-1.17236 12.62542 5.44662 14.95515 6.49176 2.28498 15.46142-5.35395 23.73636-13.93438 8.08579-8.38416 10.57213-17.53493 19.76141-18.69318 7.185-.90567 6.85007 6.0639 7.56409 10.07068 1.73151 9.71657-2.70468 24.63759-12.26 35.13062-6.0832 6.68002-18.62648 10.24861-24.77333 11.67631-2.02068.4693-14.50327 2.46487-14.1009 10.33699.55986 10.95172 16.2282.72731 16.97627 6.77854.87673 7.09064-3.84858 11.77013-3.68225 17.89295.13048 4.80026 7.1714 15.86167 7.82725 15.80811 30.78462-2.51587 54.01264-26.25628 64.64958-58.97583 7.4747-22.99215 8.47088-51.45118 6.36087-77.08587-2.53302-30.77321-13.46278-78.6194-38.4462-154.263325zm-14.74804 49.819145c7.47393.0441 12.95514 4.02577 12.74307 6.92048-.37861 5.16775-14.46244.44039-20.75623 6.31597-10.10369 9.43233-8.03439 13.46003-19.02911 20.15197-8.20201 4.99211-15.97603 7.65098-19.88966 3.89123-3.20398-3.07804-.92216-5.71544 6.8293-10.5583 2.51968-1.57425 10.54285-6.61445 13.454-9.88887 7.02656-7.9035 11.18469-11.63075 15.56768-13.97949 3.87642-2.07716 7.68382-2.87303 11.08096-2.85298zm.27906 39.84963c12.70627.0374 18.42713 6.5799 18.21797 9.75054-.16877 2.5585-2.53897 4.65607-7.76261 6.60575-2.59339.96784-5.81251 1.84992-9.96997 2.88109-3.47929.8629-10.48292 3.4841-12.36977 4.5348-8.38074 4.66706-15.80167 10.64612-20.51441 5.85232-3.11696-3.17053-1.37999-9.16627 3.22083-15.08499 1.84404-2.37229 3.8006-5.16107 6.34075-7.21596 4.10282-3.31916 9.21399-5.47306 14.013-6.41927 3.24886-.64058 6.187-.91205 8.82421-.90432zm9.39133 77.17406c1.41721.0156 2.99917.22818 4.80398.68718 7.63256 1.94087 17.30105 17.89682 17.92114 19.79001-14.58408-6.90534-21.85705-10.58607-25.50938-11.0252-4.08933-.49162-11.35376 7.93777-18.63722 6.94701-6.91288-.94052-11.77646-9.50776-11.41954-9.62121 7.94582 1.07677 13.51383 1.94663 17.50411-.11471 6.02511-3.11176 9.19564-6.73082 15.33692-6.66305z" id="rect3628" inkscape:connector-curvature="0" /><path style="fill:#fff;fill-opacity:1;fill-rule:nonzero;stroke:none" d="m295.14835 228.40115c-.36161 2.92557-1.07687 5.38913-7.79502 5.26956-3.11142-.0554-14.27332-.26228-21.38575.97264-3.24481.56355-5.60823 1.35593-7.72972 1.49223-2.38812.15335-5.50471-1.14469-6.15317-2.41649-2.51307-4.92836 15.15913-16.31566 27.87118-15.41342 6.68588.47456 15.94393 4.01688 15.19247 10.09544z" id="path3663" sodipodi:nodetypes="cssssss" inkscape:connector-curvature="0" /><path style="fill:url(#radialGradient3649);fill-opacity:1;fill-rule:nonzero;stroke:none" d="m120.10457 179.36661c44.5896 24.6031 75.52996 39.39894 140.28329 67.0628-19.67253 82.20076 2.4693 111.22056-49.43921 154.07105-21.23023 17.52553-45.33203 26.8139-74.44122 19.56679-29.0486-7.23208-49.198814-22.85584-65.20933-49.99796-26.897972-45.59928-8.307718-76.01816 48.80647-190.70268z" id="rect2831-17-1-4" sodipodi:nodetypes="ccsssc" inkscape:connector-curvature="0" /><path style="fill:#fff;fill-opacity:1;fill-rule:nonzero;stroke:none" d="m290.64319 167.69725c-61.15711 17.89592-111.32732 4.19781-131.21261-11.06194-20.42299 18.06627-23.438 29.19855-20.98073 36.42145.77707 2.28417 2.20415 3.50395 3.75603 5.37828 3.41569 4.12521 5.31382 11.06114.86424 18.92481-1.39357 2.46291-1.99914 4.13664-15.40343 21.26641-3.75909 4.80389-6.4496 13.77526-8.53192 20.76458-1.4333 4.81057-2.97328 12.42083-.58465 17.57804 2.88703 6.2336 11.10106 4.90042 11.65343 9.70905.56111 4.88456-1.3987 10.55311 1.1955 12.26017 5.37654 3.53781 10.83682 4.10045 16.51875 5.88786 10.79541 3.39595 28.87799 11.6125 33.10907 40.62188.5082 3.48422.2212 7.81741-1.92395 10.28359-2.06995 2.37976-8.79432 2.98106-12.86519 1.44771-8.9033-3.35368-9.94381-11.01963-14.7874-18.11247-4.34965-6.36932-9.5951-11.01145-15.47649-12.06437-4.87506-.87397-18.53754-3.86454-19.15335 32e-5-.96371 6.04774 14.677 8.62786 17.26436 15.95891 1.56314 4.42867 5.24798 11.45313-1.61065 10.54496-3.91838-.51885-8.63488-6.16249-12.33407-4.96543-3.43806 1.11259-4.28699 8.86383-4.77283 11.89466-1.95109 12.17006 5.12975 20.04124 12.88244 36.06998 8.55251 2.29937 17.01089 4.44851 23.2016 3.59595 37.1231-5.11193 80.24822-40.43844 98.71054-70.73004 14.74948-24.19989 30.3707-90.77463 40.48131-161.67436zm-95.26185 19.23019c.14437.0152.28809.0357.43555.0627 7.44975 1.37125 18.066 9.85389 21.21056 12.20047 7.82137 5.83654 23.51077 33.3685 18.50368 36.5895-3.80466 2.44747-16.36018-19.87449-24.91121-25.76491-1.68638-1.16169-5.6469-4.13297-9.28265-6.05699-4.03548-2.13552-7.95166-3.03801-10.80907-5.45269-2.4533-2.07317-2.75157-4.88703-2.67341-5.84521.0943-1.15702 3.05117-6.20773 7.52653-5.73293zm-5.9138 31.39073c.21483.0124.42855.0303.6402.0548 3.94452.46181 9.84716 3.77348 15.10524 8.91148 5.032 4.91719 11.45703 16.46313 7.97617 20.77813-4.57695 5.67371-19.67259-5.95908-24.37339-8.44124-4.81306-2.54139-17.24766-4.86288-16.04246-9.2268 1.96717-7.12289 10.03482-12.47017 16.69428-12.07695zm-23.54764 65.09796c4.15013 8.56904 7.06686 15.4214 10.77853 21.53919 2.85962 4.71329 6.37802 8.90215 10.1465 13.67841 3.82267 4.84497 6.73356 8.89981 7.81171 14.38848 1.18348 6.025.25673 13.68898-1.79719 24.04102-5.85366-22.83354-6.41387-24.63336-9.03131-29.95557-3.36385-6.83951-20.32949-19.8462-17.90824-43.69153z" id="rect3700" inkscape:connector-curvature="0" /><path style="fill:#fff;fill-opacity:1;fill-rule:nonzero;stroke:none" d="m133.62386 202.36488c-.23437 2.86969-5.45306 4.69739-11.35844 4.18672-3.18768-.27609-6.96918-.41073-8.80601-1.46412-1.56599-.8981-1.44206-2.62283-1.33438-3.94349.23398-2.86972 5.42501-5.88031 11.33041-5.36966 5.90539.51067 10.4024 3.72092 10.16841 6.59061z" id="path3715" sodipodi:nodetypes="csssss" inkscape:connector-curvature="0" /><g transform="matrix(1.1870924,0,0,1.2041602,238.67588,250.01897)" style="stroke:#d40000;stroke-width:2.23000002" id="g4155" inkscape:export-xdpi="115.86123" inkscape:export-ydpi="115.86123"><path sodipodi:nodetypes="ccccc" style="color:#000;font-style:normal;font-variant:normal;font-weight:400;font-stretch:normal;font-size:medium;line-height:normal;font-family:Sans;-inkscape-font-specification:Sans;text-indent:0;text-align:start;text-decoration:none;text-decoration-line:none;letter-spacing:normal;word-spacing:normal;text-transform:none;writing-mode:lr-tb;direction:ltr;baseline-shift:baseline;text-anchor:start;display:inline;overflow:visible;visibility:visible;fill:#d40000;fill-opacity:1;stroke:none;stroke-width:2.23000002;marker:none;enable-background:accumulate" d="m-116.9899 106.24536 31.819808 31.8198 236.310532-236.310518-31.81982-31.819802z" id="path3818" inkscape:connector-curvature="0" /><circle style="fill:none;stroke-width:44.59999847" id="circle3030" r="171.304" cy="4" cx="16" /></g></svg>
